<?xml version="1.0" encoding="utf-8"?>
<!-- Generator: Adobe Illustrator 20.1.0, SVG Export Plug-In . SVG Version: 6.00 Build 0)  -->
<svg version="1.1" id="Layer_1" xmlns="http://www.w3.org/2000/svg" xmlns:xlink="http://www.w3.org/1999/xlink" x="0px" y="0px"
	 viewBox="0 0 37.4 30.4" style="enable-background:new 0 0 37.4 30.4;" xml:space="preserve">
<style type="text/css">
	.st0{fill:#646EAA;}
</style>
<g>
	<g>
		<path class="st0" d="M14,25.5c9.5,0,14.8-7.9,14.8-14.8c0-0.2,0-0.4,0-0.7c1-0.7,1.9-1.6,2.6-2.7c-0.9,0.4-1.9,0.7-3,0.8
			c1.1-0.6,1.9-1.7,2.3-2.9c-1,0.6-2.1,1-3.3,1.3c-0.9-1-2.3-1.6-3.8-1.6c-2.9,0-5.2,2.3-5.2,5.2c0,0.4,0,0.8,0.1,1.2
			C14.2,11.1,10.4,9,7.8,5.9C7.4,6.6,7.1,7.5,7.1,8.5c0,1.8,0.9,3.4,2.3,4.3c-0.9,0-1.6-0.3-2.3-0.6c0,0,0,0,0,0.1
			c0,2.5,1.8,4.6,4.2,5.1c-0.4,0.1-0.9,0.2-1.4,0.2c-0.3,0-0.7,0-1-0.1c0.7,2.1,2.6,3.6,4.8,3.6c-1.8,1.4-4,2.2-6.4,2.2
			c-0.4,0-0.8,0-1.2-0.1C8.3,24.6,11.1,25.5,14,25.5"/>
	</g>
</g>
</svg>
