<?xml version="1.0" encoding="utf-8"?>
<!-- Generator: Adobe Illustrator 20.1.0, SVG Export Plug-In . SVG Version: 6.00 Build 0)  -->
<svg version="1.1" id="Layer_1" xmlns="http://www.w3.org/2000/svg" xmlns:xlink="http://www.w3.org/1999/xlink" x="0px" y="0px"
	 viewBox="0 0 159.5 81.9" style="enable-background:new 0 0 159.5 81.9;" xml:space="preserve">
<style type="text/css">
	.st0{fill:#646EAA;}
	.st1{fill:#F48120;}
</style>
<g>
	<polygon class="st0" points="23.3,40.1 30.6,40.1 30.6,13 40.5,13 40.5,6.8 13.3,6.8 13.3,13 23.3,13 	"/>
	<path class="st0" d="M49.8,27.4c0-4.9,1.5-6.9,5.1-6.9c3.1,0,4.2,2,4.2,5.9v13.6h6.6V25.3c0-6-1.8-9.9-8.8-9.9c-2.5,0-5.3,1.3-7,4
		h-0.1V6.8h-6.6v33.2h6.6V27.4z"/>
	<path class="st0" d="M77,29.2c0-4.3,1.6-7.7,6.5-7.7c0.8,0,1.8,0.1,2.4,0.2v-6.1c-0.5-0.1-0.9-0.2-1.4-0.2c-3.3,0-6.4,2.1-7.7,5.1
		h-0.1V16h-6.3v24H77V29.2z"/>
	<rect x="88.2" y="6.8" class="st0" width="6.6" height="5.4"/>
	<rect x="88.2" y="16" class="st0" width="6.6" height="24"/>
	<polygon class="st0" points="121,16 114.4,16 109.4,32.4 109.3,32.4 104.2,16 97.3,16 105.5,40.1 112.9,40.1 	"/>
	<path class="st0" d="M134.4,15.4c-7.3,0-12.3,5.5-12.3,12.7c0,7.4,4.7,12.7,12.3,12.7c5.4,0,9.4-2.4,11.3-8.1h-5.8
		c-0.4,1.5-2.6,3.1-5.2,3.1c-3.7,0-5.7-1.9-5.9-6.1h17.4C146.6,22.2,142.6,15.4,134.4,15.4z M128.8,25.4c0.1-1.9,1.2-5.1,5.5-5.1
		c3.2,0,4.7,1.8,5.3,5.1H128.8z"/>
	<path class="st0" d="M89.9,50.7c3.2,0,5.3,1.5,5.8,4.4h7.5c-0.2-6.9-6.9-10.8-13.1-10.8c-8.7,0-14.3,6.6-14.3,14.9
		c0,8.3,5.6,14.9,14.3,14.9c7.3,0,12.6-4.3,13.1-11.7h-7.5c-0.3,3.3-2.2,5.3-5.8,5.3c-4.8,0-6.7-4.2-6.7-8.5S85.1,50.7,89.9,50.7z"
		/>
	<polygon class="st0" points="40.9,62.5 40.8,62.5 30.9,44.9 23.2,44.9 23.2,73.5 30.2,73.5 30.2,55.6 30.3,55.6 40.2,73.5 
		47.9,73.5 47.9,44.9 40.9,44.9 	"/>
	<polygon class="st0" points="69.1,44.9 63.4,56.5 57.7,44.9 49.2,44.9 59.7,62.8 59.7,73.5 67.1,73.5 67.1,62.8 77.5,44.9 	"/>
	<path class="st1" d="M137.9,52.3c-2.7,0-5-2.2-5-5c0-0.3,0-0.7,0.1-1c-1.7-0.9-3.6-1.5-5.5-1.6l-0.2,2.5c0.9,0.1,1.8,0.3,2.7,0.6
		l0.2,0.1l-0.1,0.1c-0.8,1.4-1.5,2.5-2.1,3.5c2.8,0.8,5,3,5.7,5.9c1.1-0.6,2.3-1.2,3.7-2.1l0.1-0.1l0.1,0.2c0.3,0.8,0.5,1.7,0.5,2.5
		l2.5-0.2c-0.2-1.9-0.8-3.8-1.7-5.5C138.6,52.3,138.3,52.3,137.9,52.3z"/>
	<path class="st1" d="M119.4,46.5c0.1,0.3,0.1,0.7,0.1,1c0,2.7-2.2,5-5,5c-0.3,0-0.7,0-1-0.1c-0.9,1.7-1.5,3.6-1.6,5.5l2.5,0.2
		c0.1-0.9,0.3-1.8,0.6-2.7l0.1-0.2l0.1,0.1c1.3,0.8,2.5,1.5,3.5,2.1c0.8-2.8,3-5,5.9-5.7c-0.6-1.1-1.2-2.3-2.1-3.7l-0.1-0.1l0.2-0.1
		c0.8-0.3,1.7-0.5,2.5-0.5l-0.2-2.5C122.9,45,121.1,45.6,119.4,46.5z"/>
	<path class="st1" d="M122.1,70.3l0.1-0.1c0.8-1.3,1.5-2.5,2.1-3.5c-2.8-0.8-5-3-5.7-5.9c-1.1,0.6-2.3,1.2-3.7,2.1l-0.1,0.1
		l-0.1-0.2c-0.3-0.8-0.5-1.7-0.5-2.5l-2.5,0.2c0.2,1.9,0.8,3.8,1.7,5.5c0.3-0.1,0.7-0.1,1-0.1c2.7,0,5,2.2,5,5c0,0.3,0,0.7-0.1,1
		c1.7,0.9,3.6,1.5,5.5,1.6l0.2-2.5c-0.9-0.1-1.8-0.3-2.7-0.6L122.1,70.3z"/>
	<path class="st1" d="M133.8,61.1c-0.8,2.8-3,5-5.9,5.7c0.6,1.1,1.2,2.3,2.1,3.7l0.1,0.1l-0.2,0.1c-0.8,0.3-1.7,0.5-2.5,0.5l0.2,2.5
		c1.9-0.2,3.8-0.8,5.5-1.7c-0.1-0.3-0.1-0.7-0.1-1c0-2.7,2.2-5,5-5c0.3,0,0.7,0,1,0.1c0.9-1.7,1.5-3.6,1.6-5.5l-2.5-0.2
		c-0.1,0.9-0.3,1.8-0.6,2.7l-0.1,0.2l-0.1-0.1C136,62.4,134.8,61.7,133.8,61.1z"/>
	<circle class="st1" cx="137.9" cy="47.3" r="4.1"/>
	<circle class="st1" cx="114.5" cy="47.5" r="4.1"/>
	<circle class="st1" cx="114.5" cy="70.8" r="4.1"/>
	<circle class="st1" cx="137.9" cy="71" r="4.1"/>
</g>
</svg>
