<?xml version="1.0" encoding="utf-8"?>
<!-- Generator: Adobe Illustrator 20.1.0, SVG Export Plug-In . SVG Version: 6.00 Build 0)  -->
<svg version="1.1" id="Layer_1" xmlns="http://www.w3.org/2000/svg" xmlns:xlink="http://www.w3.org/1999/xlink" x="0px" y="0px"
	 viewBox="0 0 94.4 35.7" style="enable-background:new 0 0 94.4 35.7;" xml:space="preserve">
<style type="text/css">
	.st0{fill:#646EAA;}
</style>
<g>
	<g>
		<g>
			<polygon class="st0" points="85.6,16.2 87.3,14.5 87.3,9.5 82.2,4.5 65.5,4.5 60.5,9.5 60.5,6.2 58.9,4.5 52.2,4.5 50.5,6.2 
				50.5,9.5 47.2,12.8 43.8,9.5 43.8,6.2 42.2,4.5 35.5,4.5 33.8,6.2 32.1,4.5 25.5,4.5 23.8,6.2 23.8,12.8 15.4,4.5 8.8,4.5 
				7.1,6.2 7.1,29.5 8.8,31.2 15.4,31.2 17.1,29.5 17.1,22.9 25.5,31.2 32.1,31.2 33.8,29.5 33.8,16.2 42.2,24.5 42.2,29.5 
				43.8,31.2 50.5,31.2 52.2,29.5 52.2,24.5 60.5,16.2 60.5,26.2 65.5,31.2 82.2,31.2 87.3,26.2 87.3,21.2 85.6,19.5 77.2,19.5 
				77.2,21.2 70.6,21.2 70.6,14.5 77.2,14.5 77.2,16.2 			"/>
		</g>
	</g>
</g>
</svg>
